<svg width="247" height="70" viewBox="0 0 247 70" fill="none" xmlns="http://www.w3.org/2000/svg">
<path d="M54.9524 34.16C54.9524 32.9333 55.1658 31.8333 55.5924 30.86C56.0324 29.8733 56.6058 29.0867 57.3124 28.5C58.0324 27.9133 58.8324 27.4733 59.7124 27.18C60.5924 26.8733 61.5124 26.72 62.4724 26.72C63.9391 26.72 65.2724 27.02 66.4724 27.62V30.48C65.5258 29.7467 64.3591 29.38 62.9724 29.38C61.6124 29.38 60.4458 29.7867 59.4724 30.6C58.5124 31.4 58.0324 32.5867 58.0324 34.16C58.0324 34.9067 58.1724 35.5733 58.4524 36.16C58.7324 36.7333 59.1058 37.1933 59.5724 37.54C60.0524 37.8867 60.5791 38.1533 61.1524 38.34C61.7391 38.5133 62.3458 38.6 62.9724 38.6C64.5191 38.6 65.7191 38.2133 66.5724 37.44V40.38C65.3324 40.98 63.9791 41.28 62.5124 41.28C61.5524 41.28 60.6324 41.1333 59.7524 40.84C58.8724 40.5467 58.0658 40.12 57.3324 39.56C56.6124 39 56.0324 38.2533 55.5924 37.32C55.1658 36.3867 54.9524 35.3333 54.9524 34.16ZM72.9701 41H70.2101V33.74H67.1501V31.4H76.0301V33.74H72.9701V41ZM85.9651 38.52C85.9651 38.9467 86.1917 39.16 86.6451 39.16C86.8317 39.16 87.0051 39.1333 87.1651 39.08V40.9C86.6584 41.0867 86.1451 41.18 85.6251 41.18C84.6117 41.18 83.9051 40.82 83.5051 40.1C82.5051 40.8867 81.3517 41.28 80.0451 41.28C79.0984 41.28 78.2984 41.02 77.6451 40.5C77.0051 39.9667 76.6851 39.2467 76.6851 38.34C76.6851 37.58 76.9117 36.9467 77.3651 36.44C77.8184 35.9333 78.3451 35.5933 78.9451 35.42C79.5451 35.2333 80.1984 35.14 80.9051 35.14C81.6917 35.14 82.4517 35.2267 83.1851 35.4V35.06C83.1851 34.5667 82.9917 34.1733 82.6051 33.88C82.2184 33.5867 81.6584 33.44 80.9251 33.44C79.8584 33.44 78.7251 33.68 77.5251 34.16V31.76C78.8051 31.3333 80.0451 31.12 81.2451 31.12C84.3917 31.12 85.9651 32.5667 85.9651 35.46V38.52ZM81.5451 36.8C80.9717 36.8 80.4917 36.9067 80.1051 37.12C79.7184 37.3333 79.5251 37.6667 79.5251 38.12C79.5251 38.4667 79.6651 38.7533 79.9451 38.98C80.2384 39.1933 80.5984 39.3 81.0251 39.3C81.8651 39.3 82.5851 39.04 83.1851 38.52V37.02C82.5717 36.8733 82.0251 36.8 81.5451 36.8ZM93.263 41H90.503V33.74H87.443V31.4H96.323V33.74H93.263V41ZM102.815 41H97.8148V31.4H100.595V34.4H102.815C104.028 34.4 104.975 34.7133 105.655 35.34C106.348 35.9533 106.695 36.74 106.695 37.7C106.695 38.66 106.348 39.4533 105.655 40.08C104.975 40.6933 104.028 41 102.815 41ZM100.575 36.4V39H102.135C102.681 39 103.101 38.8867 103.395 38.66C103.688 38.4333 103.835 38.1133 103.835 37.7C103.835 37.2867 103.688 36.9667 103.395 36.74C103.101 36.5133 102.681 36.4 102.135 36.4H100.575ZM121.336 38.52C121.336 38.9467 121.563 39.16 122.016 39.16C122.203 39.16 122.376 39.1333 122.536 39.08V40.9C122.03 41.0867 121.516 41.18 120.996 41.18C119.983 41.18 119.276 40.82 118.876 40.1C117.876 40.8867 116.723 41.28 115.416 41.28C114.47 41.28 113.67 41.02 113.016 40.5C112.376 39.9667 112.056 39.2467 112.056 38.34C112.056 37.58 112.283 36.9467 112.736 36.44C113.19 35.9333 113.716 35.5933 114.316 35.42C114.916 35.2333 115.57 35.14 116.276 35.14C117.063 35.14 117.823 35.2267 118.556 35.4V35.06C118.556 34.5667 118.363 34.1733 117.976 33.88C117.59 33.5867 117.03 33.44 116.296 33.44C115.23 33.44 114.096 33.68 112.896 34.16V31.76C114.176 31.3333 115.416 31.12 116.616 31.12C119.763 31.12 121.336 32.5667 121.336 35.46V38.52ZM116.916 36.8C116.343 36.8 115.863 36.9067 115.476 37.12C115.09 37.3333 114.896 37.6667 114.896 38.12C114.896 38.4667 115.036 38.7533 115.316 38.98C115.61 39.1933 115.97 39.3 116.396 39.3C117.236 39.3 117.956 39.04 118.556 38.52V37.02C117.943 36.8733 117.396 36.8 116.916 36.8ZM129.906 41H124.026V31.4H129.746C130.812 31.4 131.606 31.6467 132.126 32.14C132.646 32.62 132.906 33.22 132.906 33.94C132.906 35.0333 132.412 35.7667 131.426 36.14C132.559 36.5133 133.126 37.2667 133.126 38.4C133.126 39.16 132.872 39.7867 132.366 40.28C131.859 40.76 131.039 41 129.906 41ZM126.806 37.02V39.1H129.086C129.939 39.1 130.366 38.76 130.366 38.08C130.366 37.3733 129.939 37.02 129.086 37.02H126.806ZM126.786 33.3V35.34H128.906C129.706 35.34 130.106 35.0067 130.106 34.34C130.106 33.6467 129.699 33.3 128.886 33.3H126.786ZM139.826 41H137.066V33.74H134.006V31.4H142.886V33.74H139.826V41ZM145.123 39.94C144.097 39.0467 143.583 37.8 143.583 36.2C143.583 34.6 144.097 33.3533 145.123 32.46C146.15 31.5667 147.403 31.12 148.883 31.12C150.377 31.12 151.63 31.5667 152.643 32.46C153.67 33.3533 154.183 34.6 154.183 36.2C154.183 37.8 153.67 39.0467 152.643 39.94C151.63 40.8333 150.377 41.28 148.883 41.28C147.403 41.28 146.15 40.8333 145.123 39.94ZM150.703 38.08C151.143 37.5867 151.363 36.96 151.363 36.2C151.363 35.44 151.143 34.82 150.703 34.34C150.263 33.8467 149.657 33.6 148.883 33.6C148.11 33.6 147.503 33.8467 147.063 34.34C146.637 34.82 146.423 35.44 146.423 36.2C146.423 36.96 146.637 37.5867 147.063 38.08C147.503 38.56 148.11 38.8 148.883 38.8C149.657 38.8 150.263 38.56 150.703 38.08ZM158.458 32.8C159.245 31.68 160.405 31.12 161.938 31.12C163.392 31.12 164.532 31.62 165.358 32.62C166.198 33.6067 166.618 34.8 166.618 36.2C166.618 37.6 166.198 38.8 165.358 39.8C164.532 40.7867 163.392 41.28 161.938 41.28C160.618 41.28 159.565 40.8467 158.778 39.98V45.4H155.998V31.4H158.458V32.8ZM163.098 38.16C163.552 37.6267 163.778 36.9733 163.778 36.2C163.778 35.4267 163.552 34.78 163.098 34.26C162.645 33.7267 162.032 33.46 161.258 33.46C160.685 33.46 160.172 33.6133 159.718 33.92C159.278 34.2267 158.958 34.6067 158.758 35.06V37.34C158.958 37.7933 159.278 38.1733 159.718 38.48C160.172 38.7867 160.685 38.94 161.258 38.94C162.032 38.94 162.645 38.68 163.098 38.16ZM169.44 39.94C168.413 39.0467 167.9 37.8 167.9 36.2C167.9 34.6 168.413 33.3533 169.44 32.46C170.466 31.5667 171.72 31.12 173.2 31.12C174.693 31.12 175.946 31.5667 176.96 32.46C177.986 33.3533 178.5 34.6 178.5 36.2C178.5 37.8 177.986 39.0467 176.96 39.94C175.946 40.8333 174.693 41.28 173.2 41.28C171.72 41.28 170.466 40.8333 169.44 39.94ZM175.02 38.08C175.46 37.5867 175.68 36.96 175.68 36.2C175.68 35.44 175.46 34.82 175.02 34.34C174.58 33.8467 173.973 33.6 173.2 33.6C172.426 33.6 171.82 33.8467 171.38 34.34C170.953 34.82 170.74 35.44 170.74 36.2C170.74 36.96 170.953 37.5867 171.38 38.08C171.82 38.56 172.426 38.8 173.2 38.8C173.973 38.8 174.58 38.56 175.02 38.08ZM183.015 41H180.315V31.4H182.975L185.955 36.16L188.955 31.4H191.595V41H188.915V35.34L186.655 38.92H185.275L183.015 35.34V41Z" fill="white"/>
<rect x="2.5" y="2.5" width="242" height="65" rx="32.5" stroke="url(#paint0_linear_22_24)" stroke-width="5"/>
<defs>
<linearGradient id="paint0_linear_22_24" x1="123.5" y1="0" x2="123.5" y2="70" gradientUnits="userSpaceOnUse">
<stop offset="0.270833" stop-color="#46F4DB"/>
<stop offset="1" stop-color="#57D272"/>
</linearGradient>
</defs>
</svg>
