<svg width="75" height="30" viewBox="0 0 75 30" fill="none" xmlns="http://www.w3.org/2000/svg">
<path d="M5.24417 18.1743H0.1972L7.05591 0H12.2323L19.091 18.1743H14.044L12.8793 14.9289H6.40886L5.24417 18.1743ZM7.57355 11.5537H11.7147L9.6441 5.4523L7.57355 11.5537Z" fill="#07060B"/>
<path d="M31.5254 0H36.1842V13.2413C36.1842 15.0587 35.7701 16.3829 34.9419 17.2137C34.1309 18.0272 32.8195 18.434 31.0078 18.434H25.055C23.2432 18.434 21.9233 18.0272 21.095 17.2137C20.2841 16.3829 19.8786 15.0587 19.8786 13.2413V0H24.5373V13.2413C24.5373 14.2798 25.055 14.7991 26.0902 14.7991H29.9725C31.0078 14.7991 31.5254 14.2798 31.5254 13.2413V0Z" fill="#07060B"/>
<path d="M39.29 0H50.1604C51.9722 0 53.2835 0.415413 54.0945 1.24624C54.9227 2.05976 55.3368 3.37523 55.3368 5.19267V7.52936C55.3368 8.966 55.0953 10.0824 54.6121 10.8786C54.1463 11.6748 53.3957 12.2028 52.3604 12.4624L55.5956 18.1743H50.5487L47.5722 12.722H43.9488V18.1743H39.29V0ZM50.6781 5.19267C50.6781 4.15413 50.1604 3.63487 49.1252 3.63487H43.9488V9.08716H49.1252C50.1604 9.08716 50.6781 8.5679 50.6781 7.52936V5.19267Z" fill="#07060B"/>
<path d="M61.1532 18.1743H56.1062L62.9649 0H68.1413L75 18.1743H69.953L68.7883 14.9289H62.3179L61.1532 18.1743ZM63.4825 11.5537H67.6237L65.5531 5.4523L63.4825 11.5537Z" fill="#07060B"/>
<path d="M0.0801107 28.7946C1.16428 28.8749 2.01879 28.9151 2.64365 28.9151C2.72376 28.9151 2.79052 28.8883 2.84393 28.8347C2.89734 28.7812 2.92404 28.7142 2.92404 28.6338V28.3526H1.20166C0.838492 28.3526 0.547423 28.2427 0.328454 28.0231C0.109485 27.8034 0 27.5114 0 27.1471V26.8659C0 26.5015 0.109485 26.2096 0.328454 25.9899C0.547423 25.7702 0.838492 25.6604 1.20166 25.6604H3.92543V26.7051H1.68232C1.60221 26.7051 1.53546 26.7319 1.48205 26.7855C1.42864 26.8391 1.40194 26.906 1.40194 26.9864C1.40194 27.0668 1.42864 27.1337 1.48205 27.1873C1.53546 27.2409 1.60221 27.2677 1.68232 27.2677H3.12432C3.48749 27.2677 3.77856 27.3775 3.99752 27.5972C4.21649 27.8168 4.32598 28.1088 4.32598 28.4731V28.7946C4.32598 29.1589 4.21649 29.4509 3.99752 29.6705C3.77856 29.8902 3.48749 30 3.12432 30C2.17901 30 1.16428 29.9464 0.0801107 29.8393V28.7946Z" fill="#07060B"/>
<path d="M7.85148 29.9196C7.33343 29.9732 6.82606 30 6.32937 30C5.9662 30 5.67513 29.8902 5.45617 29.6705C5.2372 29.4509 5.12771 29.1589 5.12771 28.7946V26.7453H4.64705V25.6604H5.12771L5.28793 24.6961H6.52965V25.6604H7.53103V26.7453H6.52965V28.5937C6.52965 28.674 6.55635 28.741 6.60976 28.7946C6.66317 28.8481 6.72993 28.8749 6.81004 28.8749H7.85148V29.9196Z" fill="#07060B"/>
<path d="M10.0217 25.8211V29.9196H8.61973V26.906H8.0189V25.8211H10.0217ZM8.61973 24.2139H10.0217V25.339H8.61973V24.2139Z" fill="#07060B"/>
<path d="M14.5905 29.8393C13.5918 29.9464 12.7105 30 11.9468 30C11.5837 30 11.2926 29.8902 11.0736 29.6705C10.8546 29.4509 10.7452 29.1589 10.7452 28.7946V26.9462C10.7452 26.5444 10.8573 26.231 11.0816 26.006C11.3113 25.7756 11.6264 25.6604 12.0269 25.6604H14.5905V26.7453H12.4675C12.2539 26.7453 12.1471 26.8525 12.1471 27.0668V28.6338C12.1471 28.7142 12.1738 28.7812 12.2272 28.8347C12.2806 28.8883 12.3474 28.9151 12.4275 28.9151C12.9082 28.9151 13.6291 28.8749 14.5905 28.7946V29.8393Z" fill="#07060B"/>
<path d="M16.6317 28.232V29.9196H15.2298V24.2943H16.6317V27.1471H17.2726L18.1538 25.6604H19.6359L18.4342 27.7097L19.6359 29.9196H18.1538L17.2326 28.232H16.6317Z" fill="#07060B"/>
<path d="M21.5973 26.5846C21.3837 26.5846 21.2769 26.6917 21.2769 26.906V27.348H22.6388V26.906C22.6388 26.6917 22.532 26.5846 22.3183 26.5846H21.5973ZM23.8805 29.8393C22.8497 29.9464 21.9151 30 21.0766 30C20.7135 30 20.4224 29.8902 20.2034 29.6705C19.9845 29.4509 19.875 29.1589 19.875 28.7946V26.8659C19.875 26.464 19.9871 26.1506 20.2114 25.9256C20.4411 25.6952 20.7562 25.5801 21.1567 25.5801H22.759C23.1595 25.5801 23.4719 25.6952 23.6963 25.9256C23.9259 26.1506 24.0407 26.464 24.0407 26.8659V28.3526H21.2769V28.674C21.2769 28.7544 21.3036 28.8213 21.357 28.8749C21.4104 28.9285 21.4772 28.9553 21.5573 28.9553C22.086 28.9553 22.8604 28.9151 23.8805 28.8347V29.8393Z" fill="#07060B"/>
<path d="M27.202 26.8257C26.8655 26.8257 26.5184 26.906 26.1605 27.0668V29.9196H24.7586V25.6604H26.0003L26.0804 26.1828C26.5397 25.781 27.0204 25.5801 27.5224 25.5801H27.8829V26.8257H27.202Z" fill="#07060B"/>
<path d="M28.2832 28.7946C29.3673 28.8749 30.2218 28.9151 30.8467 28.9151C30.9268 28.9151 30.9936 28.8883 31.047 28.8347C31.1004 28.7812 31.1271 28.7142 31.1271 28.6338V28.3526H29.4047C29.0415 28.3526 28.7505 28.2427 28.5315 28.0231C28.3125 27.8034 28.203 27.5114 28.203 27.1471V26.8659C28.203 26.5015 28.3125 26.2096 28.5315 25.9899C28.7505 25.7702 29.0415 25.6604 29.4047 25.6604H32.1285V26.7051H29.8854C29.8053 26.7051 29.7385 26.7319 29.6851 26.7855C29.6317 26.8391 29.605 26.906 29.605 26.9864C29.605 27.0668 29.6317 27.1337 29.6851 27.1873C29.7385 27.2409 29.8053 27.2677 29.8854 27.2677H31.3274C31.6905 27.2677 31.9816 27.3775 32.2006 27.5972C32.4195 27.8168 32.529 28.1088 32.529 28.4731V28.7946C32.529 29.1589 32.4195 29.4509 32.2006 29.6705C31.9816 29.8902 31.6905 30 31.3274 30C30.3821 30 29.3673 29.9464 28.2832 29.8393V28.7946Z" fill="#07060B"/>
<path d="M39.2574 29.8393C38.2587 29.9464 37.3774 30 36.6137 30C36.2506 30 35.9595 29.8902 35.7405 29.6705C35.5216 29.4509 35.4121 29.1589 35.4121 28.7946V26.9462C35.4121 26.5444 35.5242 26.231 35.7485 26.006C35.9782 25.7756 36.2933 25.6604 36.6938 25.6604H39.2574V26.7453H37.1344C36.9208 26.7453 36.814 26.8525 36.814 27.0668V28.6338C36.814 28.7142 36.8407 28.7812 36.8941 28.8347C36.9475 28.8883 37.0143 28.9151 37.0944 28.9151C37.5751 28.9151 38.2961 28.8749 39.2574 28.7946V29.8393Z" fill="#07060B"/>
<path d="M44.2227 28.7142C44.2227 29.116 44.1079 29.4321 43.8782 29.6625C43.6539 29.8875 43.3415 30 42.9409 30H41.0984C40.6978 30 40.3827 29.8875 40.1531 29.6625C39.9287 29.4321 39.8166 29.116 39.8166 28.7142V26.8659C39.8166 26.464 39.9287 26.1506 40.1531 25.9256C40.3827 25.6952 40.6978 25.5801 41.0984 25.5801H42.9409C43.3415 25.5801 43.6539 25.6952 43.8782 25.9256C44.1079 26.1506 44.2227 26.464 44.2227 26.8659V28.7142ZM42.8207 26.9864C42.8207 26.7721 42.7139 26.6649 42.5003 26.6649H41.539C41.3253 26.6649 41.2185 26.7721 41.2185 26.9864V28.5937C41.2185 28.808 41.3253 28.9151 41.539 28.9151H42.5003C42.7139 28.9151 42.8207 28.808 42.8207 28.5937V26.9864Z" fill="#07060B"/>
<path d="M47.1057 29.9196C46.7479 29.9732 46.4061 30 46.0803 30C45.7599 30 45.4902 29.8902 45.2712 29.6705C45.0522 29.4509 44.9427 29.1589 44.9427 28.7946V24.2943H46.3447V28.5937C46.3447 28.674 46.3714 28.741 46.4248 28.7946C46.4782 28.8481 46.5449 28.8749 46.6251 28.8749H47.1057V29.9196Z" fill="#07060B"/>
<path d="M49.8282 29.9196C49.4704 29.9732 49.1286 30 48.8028 30C48.4824 30 48.2127 29.8902 47.9937 29.6705C47.7747 29.4509 47.6652 29.1589 47.6652 28.7946V24.2943H49.0672V28.5937C49.0672 28.674 49.0939 28.741 49.1473 28.7946C49.2007 28.8481 49.2675 28.8749 49.3476 28.8749H49.8282V29.9196Z" fill="#07060B"/>
<path d="M52.03 26.5846C51.8164 26.5846 51.7096 26.6917 51.7096 26.906V27.348H53.0715V26.906C53.0715 26.6917 52.9647 26.5846 52.751 26.5846H52.03ZM54.3132 29.8393C53.2824 29.9464 52.3478 30 51.5093 30C51.1461 30 50.8551 29.8902 50.6361 29.6705C50.4171 29.4509 50.3076 29.1589 50.3076 28.7946V26.8659C50.3076 26.464 50.4198 26.1506 50.6441 25.9256C50.8738 25.6952 51.1889 25.5801 51.5894 25.5801H53.1916C53.5922 25.5801 53.9046 25.6952 54.1289 25.9256C54.3586 26.1506 54.4734 26.464 54.4734 26.8659V28.3526H51.7096V28.674C51.7096 28.7544 51.7363 28.8213 51.7897 28.8749C51.8431 28.9285 51.9099 28.9553 51.99 28.9553C52.5187 28.9553 53.2931 28.9151 54.3132 28.8347V29.8393Z" fill="#07060B"/>
<path d="M58.9565 29.8393C57.9578 29.9464 57.0765 30 56.3128 30C55.9497 30 55.6586 29.8902 55.4396 29.6705C55.2207 29.4509 55.1112 29.1589 55.1112 28.7946V26.9462C55.1112 26.5444 55.2233 26.231 55.4476 26.006C55.6773 25.7756 55.9924 25.6604 56.3929 25.6604H58.9565V26.7453H56.8335C56.6199 26.7453 56.5131 26.8525 56.5131 27.0668V28.6338C56.5131 28.7142 56.5398 28.7812 56.5932 28.8347C56.6466 28.8883 56.7134 28.9151 56.7935 28.9151C57.2742 28.9151 57.9952 28.8749 58.9565 28.7946V29.8393Z" fill="#07060B"/>
<path d="M62.5599 29.9196C62.0418 29.9732 61.5345 30 61.0378 30C60.6746 30 60.3836 29.8902 60.1646 29.6705C59.9456 29.4509 59.8361 29.1589 59.8361 28.7946V26.7453H59.3555V25.6604H59.8361L59.9964 24.6961H61.2381V25.6604H62.2395V26.7453H61.2381V28.5937C61.2381 28.674 61.2648 28.741 61.3182 28.7946C61.3716 28.8481 61.4383 28.8749 61.5185 28.8749H62.5599V29.9196Z" fill="#07060B"/>
<path d="M64.7301 25.8211V29.9196H63.3281V26.906H62.7273V25.8211H64.7301ZM63.3281 24.2139H64.7301V25.339H63.3281V24.2139Z" fill="#07060B"/>
<path d="M69.8597 28.7142C69.8597 29.116 69.7449 29.4321 69.5152 29.6625C69.2909 29.8875 68.9784 30 68.5779 30H66.7354C66.3348 30 66.0197 29.8875 65.79 29.6625C65.5657 29.4321 65.4536 29.116 65.4536 28.7142V26.8659C65.4536 26.464 65.5657 26.1506 65.79 25.9256C66.0197 25.6952 66.3348 25.5801 66.7354 25.5801H68.5779C68.9784 25.5801 69.2909 25.6952 69.5152 25.9256C69.7449 26.1506 69.8597 26.464 69.8597 26.8659V28.7142ZM68.4577 26.9864C68.4577 26.7721 68.3509 26.6649 68.1373 26.6649H67.176C66.9623 26.6649 66.8555 26.7721 66.8555 26.9864V28.5937C66.8555 28.808 66.9623 28.9151 67.176 28.9151H68.1373C68.3509 28.9151 68.4577 28.808 68.4577 28.5937V26.9864Z" fill="#07060B"/>
<path d="M72.943 26.7453C72.6599 26.7453 72.3395 26.7989 71.9817 26.906V29.9196H70.5797V25.6604H71.8214L71.9016 26.0622C72.1526 25.8961 72.4089 25.7756 72.6706 25.7006C72.9377 25.6202 73.162 25.5801 73.3436 25.5801H73.704C74.0672 25.5801 74.3583 25.6899 74.5773 25.9095C74.7962 26.1292 74.9057 26.4212 74.9057 26.7855V29.9196H73.5038V27.0266C73.5038 26.9462 73.4771 26.8792 73.4237 26.8257C73.3702 26.7721 73.3035 26.7453 73.2234 26.7453H72.943Z" fill="#07060B"/>
</svg>
